<svg width="51" height="42" viewBox="0 0 51 42" fill="none" xmlns="http://www.w3.org/2000/svg">
<path d="M1.50002 38.0033L6.7052 33.477C10.3508 30.3069 15.7415 30.1964 19.5139 33.2144L24.1972 36.961C24.9517 37.5646 26.0299 37.5425 26.759 36.9085L30.7052 33.477C34.3508 30.3069 39.7415 30.1964 43.5139 33.2144L49.5 38.0033" stroke="white" stroke-width="3" stroke-linecap="round"/>
<path d="M2.50002 36.0033L7.07472 31.8523C10.7702 28.4991 16.3721 28.3835 20.2029 31.5813L24.1636 34.8877C24.9298 35.5272 26.0501 35.5041 26.7892 34.8335L30.0747 31.8523C33.7702 28.4991 39.3721 28.3835 43.2029 31.5813L48.5 36.0033" stroke="white" stroke-width="3" stroke-linecap="round"/>
<circle cx="25.5" cy="24.0033" r="4.5" fill="#10B981" stroke="#10B981"/>
<path d="M13.5 21.5298C13.5 21.5298 14.5966 17.5934 16.5 15.8485C18.9243 13.6262 22.09 12.9346 25.5 13.0033C28.7239 13.0682 31.0529 13.9033 33.5 15.8485C35.8122 17.6864 36.5 22.0033 36.5 22.0033" stroke="#10B981" stroke-width="4" stroke-linecap="round"/>
<path d="M3.00002 24.0033C3.00002 24.0033 3.71882 15.4407 7.00002 11.5033C9.50002 8.50327 11.3195 6.37243 15 4.50327C18.6806 2.63412 21.5166 1.94582 25.5 2.00327C29.4835 2.06073 31.9498 2.8362 35.5 4.50327C39.0503 6.17034 40.3708 6.92239 43.5 10.5033C46.6293 14.0842 48 24.0033 48 24.0033" stroke="#10B981" stroke-width="4" stroke-linecap="round"/>
<path d="M1.50002 40.0033H49.5" stroke="white" stroke-width="3" stroke-linecap="round"/>
</svg>
